<?xml version="1.0" encoding="utf-8"?>
<!-- Generator: Adobe Illustrator 18.0.0, SVG Export Plug-In . SVG Version: 6.00 Build 0)  -->
<!DOCTYPE svg PUBLIC "-//W3C//DTD SVG 1.1//EN" "http://www.w3.org/Graphics/SVG/1.1/DTD/svg11.dtd">
<svg version="1.1" id="Layer_1" xmlns="http://www.w3.org/2000/svg" xmlns:xlink="http://www.w3.org/1999/xlink" x="0px" y="0px"
	 viewBox="0 0 1044 220.4" enable-background="new 0 0 1044 220.4" xml:space="preserve">
<g>
	<g>
		<g>
			<path fill="#3268AB" d="M865.6,192.3c-35.9-0.7-66.3-26-72.9-61.2c-5.9-31.6,10.3-64.6,39.1-79.2c10.3-5.2,21.2-8,32.7-8.1
				c6.4-0.1,10.7,3.9,10.8,9.8c0.1,5.7-3.8,9.8-10.2,10c-14.7,0.6-27.4,5.8-38,16.1c-26.7,26.2-17.6,72.8,16.7,87.4
				c29.6,12.6,62.8-2.8,72.7-32.1c1.1-3.3,1.5-5.8-1.1-9.1c-6.4-8.3-3.9-19.5,4.9-24.9c8.1-4.9,19.1-1.7,23.8,7
				c3.4,6.2,1.9,14.8-3.2,20c-1.5,1.6-2.8,3.8-3.4,5.9c-7.5,28.9-25.5,47.6-54.4,55.4C877.5,190.9,871.5,191.3,865.6,192.3z"/>
			<path fill="#0F9D58" d="M936,75c-25.6-0.6-47.1,16.6-53.5,39.4c-0.7,2.5-0.5,4.3,1.4,6.4c4.6,5.2,5.9,11.6,3,17.8
				c-3,6.5-8.4,10.4-16,10.2c-7.3-0.2-12.4-4.1-15.1-10.4c-2.8-6.4-1.2-12.7,3.4-18.2c1.5-1.8,2.9-4.1,3.5-6.3
				c5.3-23.4,18.6-40.5,40-51.2c15.3-7.7,31.5-9.2,48.3-5.6c30.2,6.3,53.7,33,57,62.7c2.7,24.8-5,46-23.1,63.2
				c-13.1,12.5-29,18.5-46.8,19.5c-4.7,0.2-9.7,0-12-5.4c-2.8-6.6,1.1-13.1,8.3-13.9c5.7-0.6,11.5-0.9,16.9-2.5
				c4.9-1.4,9.7-4,13.9-6.9c4.2-2.9,7.7-6.7,11.4-10.3c7-6.8,10-15.8,11.5-25c4.2-24.2-7.1-46.7-28.9-58
				C951.5,76.7,943.5,74.5,936,75z"/>
			<path fill="#0F9D58" d="M989.2,0c15.1,0.2,27,12.3,26.8,27.4c-0.2,15.3-12.3,27.1-27.6,27c-14.9-0.1-26.7-12.1-27-26.8
				C961.2,12.5,974.1-0.8,989.2,0z"/>
			<path fill="#3268AB" d="M769.5,34.7c15.1,0.2,27,12.3,26.8,27.4c-0.2,15.3-12.3,27.1-27.6,27c-14.9-0.1-26.7-12.1-27-26.8
				C741.4,47.2,754.3,33.9,769.5,34.7z"/>
			<path fill="#3268AB" d="M795.4,168c7.4,7.5,14.5,14.8,22,22.4c-5,5.2-10.4,11-15.9,16.8c-3.1,3.3-6.3,6.3-9.1,9.8
				c-2,2.5-4.3,2.6-7,2c-8-1.8-17.7-11.8-19-19.9c-0.1-0.8,0.4-1.9,1-2.6C776.6,187,786,177.6,795.4,168
				C795.4,167.9,795.7,167.9,795.4,168z M786,212.9c2.7,0.4,23.9-20,25.4-24C809.1,189,791.2,205.8,786,212.9z"/>
			<path fill="#0F9D58" d="M1013.3,168.6c5.7,4.9,11.8,10.2,17.9,15.5c3.9,3.3,7.8,6.6,11.5,10.1c0.9,0.8,1.6,2.6,1.4,3.7
				c-2.2,9.4-7.6,16.4-16.6,20.3c-2.2,0.9-4.2,1.3-6.2-0.6c-9.1-8.3-18.3-16.5-27.4-24.7c-0.2-0.2-0.3-0.7-0.2-0.5
				C1000.1,184.4,1006.5,176.7,1013.3,168.6z M999.9,189c-0.4,0.3-0.8,0.6-1.2,0.8c0.6,1.1,0.9,2.4,1.7,3.1
				c7.4,6.5,14.8,12.9,22.3,19.2c0.8,0.7,2.2,0.7,3.3,1c0.2-0.5,0.4-0.9,0.5-1.4C1017.7,204.2,1008.8,196.6,999.9,189z"/>
		</g>
	</g>
	<g>
		<path fill="#111C2E" d="M45.7,87.5c0,4.9-0.5,9-1.4,12.4c-0.9,3.4-2.4,6.1-4.3,8.3c-1.9,2.1-4.3,3.7-7.1,4.6
			c-2.8,1-6.1,1.4-9.9,1.4c-3.3,0-6.4-0.5-9-1.6c-2.7-1.1-5-2.5-6.9-4.5c-1.9-1.9-3.4-4.3-4.4-7c-1-2.7-1.5-5.8-1.5-9.2v-4.3h14.3
			c0,8.9,2.5,13.4,7.5,13.4c1.3,0,2.5-0.2,3.5-0.5c1-0.3,1.9-1,2.6-2c0.7-1,1.2-2.3,1.6-4c0.4-1.7,0.6-3.9,0.6-6.7V36h14.4V87.5z"/>
		<path fill="#111C2E" d="M108.1,34.7c5.4,0,10.3,1,14.9,2.9c4.5,1.9,8.4,4.6,11.7,8.1c3.3,3.5,5.9,7.6,7.7,12.5
			c1.8,4.9,2.8,10.3,2.8,16.3c0,5.9-0.9,11.3-2.7,16.1c-1.8,4.9-4.4,9.1-7.6,12.6c-3.3,3.5-7.2,6.2-11.7,8.2
			c-4.5,1.9-9.5,2.9-15,2.9c-5.4,0-10.4-1-15-2.9c-4.5-1.9-8.4-4.6-11.7-8.1c-3.3-3.5-5.8-7.7-7.6-12.6C72,85.7,71,80.3,71,74.4
			c0-6,0.9-11.4,2.8-16.3c1.8-4.9,4.4-9.1,7.7-12.5c3.3-3.5,7.2-6.1,11.7-8C97.8,35.6,102.7,34.7,108.1,34.7z M108,101.4
			c3.3,0,6.3-0.6,9-1.8c2.8-1.2,5.1-3,7.1-5.3c2-2.3,3.5-5.1,4.6-8.5c1.1-3.3,1.7-7.1,1.7-11.4c0-4.3-0.6-8.1-1.7-11.4
			c-1.1-3.3-2.7-6.1-4.7-8.4c-2-2.3-4.3-4-7.1-5.2c-2.7-1.2-5.7-1.8-8.9-1.8c-3.3,0-6.3,0.6-9,1.8c-2.7,1.2-5.1,3-7.1,5.3
			c-2,2.3-3.6,5.1-4.7,8.5c-1.1,3.3-1.7,7.1-1.7,11.3c0,4.2,0.6,8,1.7,11.4c1.1,3.3,2.7,6.2,4.6,8.5c2,2.3,4.3,4.1,7.1,5.3
			C101.8,100.8,104.8,101.4,108,101.4z"/>
		<path fill="#111C2E" d="M229.6,89.6c0,7.7-2.5,13.5-7.4,17.5c-4.9,4-12.3,5.9-22.1,5.9h-29.6V36h28.2c4.1,0,7.9,0.5,11.2,1.4
			c3.4,1,6.2,2.3,8.6,4.1c2.4,1.8,4.2,4,5.5,6.5c1.3,2.6,2,5.5,2,8.7c0,3.3-0.6,6.1-1.8,8.5c-1.2,2.4-3.1,4.6-5.6,6.4
			c1.9,0.9,3.5,2,4.8,3.2c1.4,1.3,2.5,2.7,3.4,4.2c0.9,1.6,1.6,3.2,2,5C229.3,85.9,229.6,87.7,229.6,89.6z M184.8,66.3h13.8
			c4.5,0,7.8-0.7,9.9-2c2.1-1.3,3.2-3.6,3.2-6.7c0-1.4-0.2-2.6-0.7-3.7c-0.5-1.1-1.3-1.9-2.4-2.6c-1.1-0.7-2.5-1.2-4.3-1.5
			c-1.8-0.3-4-0.5-6.6-0.5h-12.8V66.3z M184.8,99.8H200c9.8,0,14.8-3.4,14.8-10.2c0-1.8-0.3-3.3-0.8-4.6c-0.5-1.3-1.4-2.3-2.6-3.2
			c-1.2-0.8-2.9-1.5-5-1.9c-2.1-0.4-4.6-0.6-7.8-0.6h-13.8V99.8z"/>
		<path fill="#111C2E" d="M307.5,60.1c-0.9-4-3-7-6.2-9.2c-3.3-2.1-7.5-3.2-12.6-3.2c-3.3,0-6.4,0.6-9.2,1.8
			c-2.8,1.2-5.1,2.9-7.1,5.2c-2,2.3-3.5,5.1-4.6,8.4c-1.1,3.3-1.6,7.1-1.6,11.4c0,4.2,0.6,8,1.7,11.4c1.1,3.3,2.7,6.2,4.6,8.5
			c2,2.3,4.4,4.1,7.1,5.3c2.8,1.2,5.8,1.8,9.2,1.8c4.8,0,8.9-0.7,12.3-2.1c3.4-1.4,6.3-3.6,8.6-6.6v-8.1h-19.1V71.4h33.3V113h-11
			l-1.9-5.5c-2.7,2.2-5.9,3.9-9.5,5c-3.7,1.1-7.9,1.7-12.6,1.7c-5.6,0-10.7-1-15.3-2.9c-4.6-1.9-8.5-4.6-11.8-8.1
			c-3.3-3.5-5.8-7.7-7.6-12.5s-2.7-10.3-2.7-16.3c0-6.1,0.9-11.6,2.7-16.5s4.3-9.1,7.6-12.5c3.3-3.4,7.2-6.1,11.7-7.9
			c4.6-1.8,9.6-2.8,15.1-2.8c4.4,0,8.5,0.6,12.3,1.8c3.8,1.2,7.2,2.9,10.2,5.1c3,2.2,5.4,4.9,7.4,8c1.9,3.1,3.2,6.6,3.9,10.4H307.5z
			"/>
		<path fill="#111C2E" d="M382.3,114.2c-4.9,0-9-0.5-12.4-1.5c-3.4-1-6.3-2.3-8.5-3.9c-2.3-1.7-4.1-3.6-5.4-5.8
			c-1.3-2.2-2.3-4.6-3-7.1c-0.7-2.5-1.1-5.1-1.3-7.8c-0.2-2.7-0.3-5.3-0.3-7.9V36h14.4v44c0,4.4,0.4,8,1.1,10.7
			c0.7,2.7,1.8,4.9,3.2,6.4c1.4,1.5,3.1,2.6,5.2,3.2c2,0.6,4.4,0.8,7,0.8c2.7,0,5-0.3,7.1-0.8c2-0.6,3.8-1.6,5.1-3.2
			c1.4-1.6,2.4-3.7,3.1-6.4c0.7-2.7,1.1-6.3,1.1-10.6V36h14.5v44.1c0,5.4-0.5,10.2-1.4,14.4c-0.9,4.2-2.5,7.8-4.9,10.7
			c-2.3,2.9-5.5,5.2-9.5,6.7C393.5,113.4,388.5,114.2,382.3,114.2z"/>
		<path fill="#111C2E" d="M509.6,36l-30.5,44.6V113h-14.4V80.6L434.2,36h17.4l20.4,31.2L492.2,36H509.6z"/>
		<path fill="#111C2E" d="M534.4,113h-14.6V98.6h14.6V113z"/>
		<path fill="#111C2E" d="M584.9,113h-14.3V36h14.3V113z"/>
		<path fill="#111C2E" d="M657.1,92c-0.5-1.4-1.2-2.8-2.1-4c-0.9-1.2-1.9-2.3-3.1-3.2c-1.2-0.9-2.5-1.6-3.9-2.1
			c-1.4-0.5-2.9-0.8-4.5-0.8h-15.4v31h-14.4V36h34.5c2.1,0,4,0,5.9,0.1c1.9,0.1,3.7,0.3,5.4,0.7c1.7,0.3,3.3,0.9,4.9,1.6
			c1.6,0.7,3.1,1.7,4.5,2.9c2.5,2.1,4.4,4.7,5.7,7.8c1.3,3.1,1.9,6.2,1.9,9.5c0,4.7-1.1,8.7-3.4,12.1c-2.3,3.4-5.4,5.9-9.4,7.7
			c1.7,1.2,3.2,2.8,4.5,4.8c1.3,1.9,2.5,4.3,3.5,7.1L680,113h-15.5L657.1,92z M628.1,68.8h19.1c2.6,0,4.8-0.2,6.6-0.5
			c1.8-0.4,3.3-0.9,4.5-1.8c1.2-0.8,2-1.9,2.6-3.2s0.8-2.9,0.8-4.8c0-3.4-1.1-5.9-3.2-7.5c-2.1-1.6-5.4-2.4-9.8-2.4h-20.6V68.8z"/>
	</g>
	<g>
		<g>
			<path fill="#939292" d="M45.3,183.2h-7.1c-0.1-1.7-0.5-3.1-1.3-4.5c-0.8-1.3-1.8-2.5-3-3.4c-1.2-0.9-2.7-1.6-4.3-2.1
				c-1.7-0.5-3.4-0.7-5.4-0.7c-2.6,0-5,0.5-7.1,1.4c-2.1,0.9-3.9,2.3-5.4,4c-1.5,1.8-2.6,4-3.4,6.6c-0.8,2.6-1.2,5.6-1.2,9
				c0,3.4,0.4,6.4,1.2,9c0.8,2.6,1.9,4.8,3.4,6.6s3.3,3.1,5.4,4.1s4.4,1.4,7,1.4c2,0,3.9-0.2,5.5-0.7s3.1-1.2,4.3-2.2
				c1.2-1,2.2-2.2,2.9-3.6c0.7-1.4,1.2-3.1,1.3-4.9h7.1c-0.2,2.8-0.9,5.2-2.1,7.4c-1.1,2.2-2.6,4-4.5,5.5c-1.9,1.5-4,2.6-6.5,3.4
				c-2.5,0.8-5.1,1.2-8,1.2c-3.7,0-7.1-0.6-10-1.9s-5.5-3.1-7.6-5.4s-3.7-5.2-4.8-8.5s-1.7-7-1.7-11.1s0.6-7.8,1.7-11.1
				c1.1-3.3,2.8-6.2,4.9-8.5s4.6-4.1,7.6-5.4c3-1.3,6.3-1.9,10-1.9c2.8,0,5.4,0.4,7.8,1.2c2.4,0.8,4.6,1.9,6.5,3.4
				c1.9,1.5,3.4,3.2,4.6,5.3C44.4,178.4,45.1,180.7,45.3,183.2z"/>
		</g>
		<g>
			<path fill="#939292" d="M97.6,219.5h-7.8l-6-15.8H62l-5.8,15.8H49l19.9-52h7.5L97.6,219.5z M81.8,198.2l-9.2-24.1l-8.7,24.1H81.8
				z"/>
		</g>
		<g>
			<path fill="#939292" d="M146.8,219.5h-7.5l-4.9-13.9c-0.4-1.2-1-2.3-1.8-3.3s-1.6-1.9-2.6-2.6c-1-0.7-2.1-1.3-3.3-1.7
				s-2.5-0.6-3.8-0.6h-12.8v22.2h-6.9v-52h23.1c1.4,0,2.7,0,4,0.1s2.5,0.2,3.6,0.4c1.1,0.2,2.2,0.6,3.3,1s2,1.1,2.9,1.9
				c1.6,1.4,2.8,3.1,3.6,5c0.8,2,1.2,4,1.2,6.1c0,1.8-0.3,3.5-0.8,5s-1.3,2.9-2.3,4.1c-1,1.2-2.2,2.2-3.7,3
				c-1.4,0.8-3.1,1.4-4.9,1.7v0.1c3.6,1.1,6.4,4.3,8.4,9.4L146.8,219.5z M110.3,191h15.4c2.1,0,4-0.2,5.5-0.5
				c1.5-0.3,2.8-0.8,3.8-1.5c1-0.7,1.7-1.6,2.2-2.8s0.7-2.6,0.7-4.2c0-3-0.9-5.2-2.8-6.6c-1.8-1.4-4.6-2.1-8.4-2.1h-16.5V191z"/>
		</g>
		<g>
			<path fill="#939292" d="M194.7,219.5h-38.9v-52h37.7v6.2h-30.8v15.8h28.8v6.2h-28.8v17.7h32V219.5z"/>
		</g>
		<g>
			<path fill="#939292" d="M243.2,219.5h-38.9v-52H242v6.2h-30.8v15.8H240v6.2h-28.8v17.7h32V219.5z"/>
		</g>
		<g>
			<path fill="#939292" d="M296.3,219.5h-7.5l-4.9-13.9c-0.4-1.2-1-2.3-1.8-3.3c-0.7-1-1.6-1.9-2.6-2.6s-2.1-1.3-3.3-1.7
				s-2.5-0.6-3.8-0.6h-12.8v22.2h-6.9v-52h23.1c1.4,0,2.7,0,4,0.1s2.5,0.2,3.6,0.4c1.1,0.2,2.2,0.6,3.3,1c1,0.4,2,1.1,2.9,1.9
				c1.6,1.4,2.8,3.1,3.6,5c0.8,2,1.2,4,1.2,6.1c0,1.8-0.3,3.5-0.8,5s-1.3,2.9-2.3,4.1s-2.2,2.2-3.7,3c-1.4,0.8-3.1,1.4-4.9,1.7v0.1
				c3.6,1.1,6.4,4.3,8.4,9.4L296.3,219.5z M259.8,191h15.4c2.1,0,4-0.2,5.5-0.5c1.5-0.3,2.8-0.8,3.8-1.5c1-0.7,1.7-1.6,2.2-2.8
				c0.5-1.2,0.7-2.6,0.7-4.2c0-3-0.9-5.2-2.8-6.6c-1.8-1.4-4.6-2.1-8.4-2.1h-16.5V191z"/>
		</g>
		<g>
			<path fill="#939292" d="M325,220.4c-3.7,0-6.9-0.4-9.6-1.3s-5-2.1-6.9-3.6c-1.8-1.6-3.2-3.4-4.2-5.6s-1.5-4.5-1.5-7.1h6.6
				c0.2,2,0.7,3.7,1.6,5.1c0.9,1.4,2,2.6,3.3,3.6c1.4,0.9,2.9,1.6,4.7,2.1c1.8,0.4,3.6,0.7,5.6,0.7c1.9,0,3.7-0.2,5.3-0.6
				c1.6-0.4,2.9-1,4.1-1.8c1.1-0.8,2-1.7,2.6-2.8c0.6-1.1,0.9-2.3,0.9-3.7c0-1.4-0.3-2.6-0.8-3.6s-1.5-1.9-2.8-2.6
				c-1.3-0.7-2.9-1.4-5-2c-2.1-0.6-4.6-1.2-7.6-1.8c-2.9-0.7-5.4-1.4-7.5-2.3s-3.8-1.9-5.2-3s-2.4-2.4-3-3.9c-0.7-1.5-1-3.2-1-5.1
				c0-2.1,0.4-4,1.3-5.8c0.9-1.8,2.2-3.3,3.8-4.6c1.6-1.3,3.6-2.3,5.9-3s4.8-1.1,7.5-1.1c2.9,0,5.6,0.4,8,1.1
				c2.4,0.7,4.5,1.7,6.2,3.1c1.7,1.4,3.1,3,4.1,4.9c1,1.9,1.5,4.1,1.6,6.6h-6.7c-0.7-6.3-5-9.4-12.9-9.4c-3.9,0-6.8,0.7-8.9,2.1
				c-2.1,1.4-3.1,3.4-3.1,5.8c0,1.1,0.2,2,0.6,2.8s1,1.5,2,2c0.9,0.6,2.2,1.1,3.7,1.6c1.5,0.5,3.4,1,5.7,1.4c1.5,0.3,3.1,0.7,4.8,1
				c1.6,0.4,3.2,0.8,4.8,1.4s3,1.2,4.4,2c1.4,0.8,2.6,1.7,3.6,2.8c1,1.1,1.9,2.4,2.5,3.8s0.9,3.2,0.9,5.2c0,2.3-0.5,4.4-1.4,6.3
				s-2.3,3.6-4,4.9c-1.7,1.4-3.8,2.5-6.1,3.2C330.4,220,327.8,220.4,325,220.4z"/>
		</g>
		<g>
			<path fill="#939292" d="M412.8,173.7h-28.3v16.1h24.5v6.2h-24.5v23.6h-6.9v-52h35.1V173.7z"/>
		</g>
		<g>
			<path fill="#939292" d="M444.6,166.6c3.6,0,6.9,0.6,10,1.9c3,1.3,5.7,3.1,7.9,5.5s3.9,5.2,5.2,8.5s1.9,7,1.9,11
				c0,4-0.6,7.6-1.8,10.9c-1.2,3.3-2.9,6.1-5.1,8.5c-2.2,2.4-4.8,4.2-7.9,5.5c-3,1.3-6.4,2-10,2c-3.7,0-7-0.7-10-2
				c-3-1.3-5.7-3.1-7.9-5.5s-3.9-5.2-5.1-8.5c-1.2-3.3-1.8-7-1.8-11c0-4,0.6-7.7,1.9-11c1.2-3.3,3-6.1,5.2-8.5s4.8-4.2,7.9-5.4
				C437.6,167.2,441,166.6,444.6,166.6z M444.5,214.5c2.6,0,5-0.5,7.2-1.4s4.1-2.3,5.6-4.1c1.6-1.8,2.8-4,3.7-6.6s1.3-5.6,1.3-8.9
				s-0.4-6.3-1.3-8.9c-0.9-2.6-2.1-4.8-3.7-6.6c-1.6-1.8-3.4-3.1-5.6-4.1s-4.5-1.4-7-1.4c-2.6,0-5,0.5-7.2,1.4s-4.1,2.3-5.7,4.1
				c-1.6,1.8-2.8,4-3.7,6.6c-0.9,2.6-1.3,5.5-1.3,8.8c0,3.3,0.4,6.3,1.3,8.9s2.1,4.8,3.7,6.6s3.4,3.2,5.6,4.1
				S441.9,214.5,444.5,214.5z"/>
		</g>
		<g>
			<path fill="#939292" d="M522,219.5h-7.5l-4.9-13.9c-0.4-1.2-1-2.3-1.8-3.3c-0.7-1-1.6-1.9-2.6-2.6s-2.1-1.3-3.3-1.7
				s-2.5-0.6-3.8-0.6h-12.8v22.2h-6.9v-52h23.1c1.4,0,2.7,0,4,0.1s2.5,0.2,3.6,0.4c1.1,0.2,2.2,0.6,3.3,1c1,0.4,2,1.1,2.9,1.9
				c1.6,1.4,2.8,3.1,3.6,5s1.2,4,1.2,6.1c0,1.8-0.3,3.5-0.8,5c-0.5,1.5-1.3,2.9-2.3,4.1s-2.2,2.2-3.7,3c-1.4,0.8-3.1,1.4-4.9,1.7
				v0.1c3.6,1.1,6.4,4.3,8.4,9.4L522,219.5z M485.5,191h15.4c2.1,0,4-0.2,5.5-0.5c1.5-0.3,2.8-0.8,3.8-1.5c1-0.7,1.7-1.6,2.2-2.8
				c0.5-1.2,0.7-2.6,0.7-4.2c0-3-0.9-5.2-2.8-6.6c-1.8-1.4-4.6-2.1-8.4-2.1h-16.5V191z"/>
		</g>
		<g>
			<path fill="#939292" d="M600.3,219.5h-7.8l-6-15.8h-21.8l-5.8,15.8h-7.3l19.9-52h7.5L600.3,219.5z M584.5,198.2l-9.2-24.1
				l-8.7,24.1H584.5z"/>
		</g>
		<g>
			<path fill="#939292" d="M638.3,219.5H606v-52h6.9v45.8h25.3V219.5z"/>
		</g>
		<g>
			<path fill="#939292" d="M678.7,219.5h-32.2v-52h6.9v45.8h25.3V219.5z"/>
		</g>
	</g>
</g>
</svg>
